<svg width="545" height="404" viewBox="0 0 545 404" fill="none" xmlns="http://www.w3.org/2000/svg">
<g clip-path="url(#clip0_527_6705)">
<g opacity="0.4">
<path fill-rule="evenodd" clip-rule="evenodd" d="M122.43 147.99C119.25 151.79 116.99 153.71 112.76 156.28C106.67 159.95 102.49 161.3 95.3903 161.8H38.8203C31.2403 165.01 27.5403 173.29 30.1403 181.13C32.6003 188.49 41.3603 191.6 46.9603 191.6H264.71C273.47 191.11 274.13 192.63 280.02 191.6C283.26 191.07 285.22 191 288.18 189.41C293.26 186.66 295.15 184.84 297.33 187.76C299.19 190.21 298.45 193.94 295.81 195.49L271.85 218.12C267.95 222.52 265.02 224.64 259.6 226.96C254.59 229.11 251.32 229.78 245.85 229.73H81.1303C77.5703 235.24 76.9203 238.35 79.6003 242.41C100 273.34 172.92 275 228.98 274.45C277.12 273.96 381.99 271.12 369.23 212.62C366.38 199.51 351.84 192.33 337.63 184.48C315.69 172.31 295.81 167.36 271.85 159.63C265.97 157.71 259.84 152.57 264.21 144.72C267.04 139.6 271.09 139.04 275.42 135.33C286.86 125.55 294.79 120.97 303.98 109.39C313.17 97.7402 304.87 85.9702 298.88 72.9302C293.32 60.8902 285.11 50.8602 276.94 47.0002C274.06 45.6202 271.98 48.0902 269.28 49.7602L251.45 67.4302C249.85 69.3402 248.82 70.3302 246.86 71.8602C244.83 73.3902 243.73 75.6102 241.26 75.1602C238.96 74.7202 238.07 72.9202 237.17 70.7302C236.43 68.9502 237.58 67.4702 236.65 65.7702C235.52 63.6802 233.42 63.9402 231.56 62.4402C224.11 56.4002 220.69 54.7802 220.65 40.3202C220.65 26.5302 231.05 13.3302 242.28 3.93019C244.99 1.66019 248.12 0.320193 250.94 2.27019C254.51 4.74019 251.45 9.54019 249.42 13.3402C243.81 23.8102 243.72 34.1702 252.47 39.2702C257.64 42.2902 262.8 43.4202 267.8 39.8202C276.96 33.2102 281.56 28.2202 287.66 21.0602C291.19 16.9102 295.57 14.5402 300.4 16.6402C313.16 22.1502 321.01 32.4902 327.44 46.9902C336.76 68.0802 337.64 92.2902 324.9 106.07C317.5 114.1 311.52 118.92 308.58 122.08C306.02 124.85 301.92 129.27 311.63 133.12C347.45 147.4 392.2 164.04 389.66 201.58C383.44 293.31 248.42 319.74 184.14 320.83C195.91 356.16 256.57 350.62 301.44 348.43C372.31 344.94 470.46 309.75 461.58 255.14C456.98 226.97 428.4 222 402.39 206.55C398.83 204.42 396.02 202.49 395.25 198.26C394.48 193.95 396.31 190.76 399.36 187.78C404.93 182.25 406.81 180.03 411.58 175.08C416.95 169.5 420.67 166.92 425.33 160.72C427.97 157.23 430.14 155.96 431.47 151.35C433.49 144.16 429.62 130.58 422.78 120.97C416.55 112.21 409.53 100.57 404.43 101.1C401.98 101.39 400.77 102.63 398.35 102.77C395.27 102.92 392.26 103.72 390.68 101.1C389.03 98.4602 389.97 94.8502 392.71 93.3702L422.28 66.8602C424.58 64.4402 427.13 63.5902 430.45 64.1202C433.22 64.5802 434.46 66.0202 436.53 67.9702C452.86 83.4402 463.58 96.6902 464.11 114.37C464.67 135 449.12 142.29 439.63 160.2C437.25 164.7 433.05 166.69 433.5 171.79C433.99 177.08 438.17 178.93 442.18 182.26C477.36 211.53 495.74 249.08 467.17 292.15C431.08 346.58 404.4 357.39 343.23 383.79C244.83 426.28 133.16 398.15 167.86 326.36C168.57 324.82 169.47 323.74 168.42 322.57C167.89 321.98 166.36 321.98 164.26 321.94C130.25 319.85 94.4303 316.44 67.3803 290.49C53.0903 276.75 56.6903 256.47 63.3103 236.37C64.1603 233.74 67.8103 231.7 65.8303 229.76C65.0803 228.98 64.3703 228.67 63.3103 228.65H55.1403C11.7903 228.81 0.670338 208.28 0.0603376 197.69C-0.389662 190.27 1.74034 185.04 7.19034 180.02L50.0303 140.83C55.4903 136.93 58.9703 135.16 65.3103 133.09C71.4503 131.09 75.2103 130.46 81.6403 130.33H117.33C119.69 130.8 121.21 130.64 123.45 129.79C125.25 129.09 126.22 128.41 127.54 127.04L132.61 123.12C133.51 122.12 134.79 121.49 136.2 121.49C139.01 121.49 141.32 123.96 141.32 127.03C141.32 128.92 140.39 130.62 139.02 131.61L122.42 147.99H122.43Z" fill="#006937" fill-opacity="0.2"/>
<path fill-rule="evenodd" clip-rule="evenodd" d="M505.9 166.21C503.99 166.18 501.03 167.13 501.03 167.13L488.6 180.62C486.35 183.06 482.69 183.06 480.4 180.62L467.94 167.13C465.71 164.67 465.71 160.72 467.94 158.27L480.39 144.8C482.64 142.36 486.35 142.36 488.57 144.8L501.03 158.28C502.41 159.14 503.68 161.36 505.9 161.24C507.96 161.14 510.27 158.28 510.27 158.28L522.7 144.8C524.96 142.36 528.64 142.36 530.9 144.8L543.35 158.27C545.6 160.72 545.6 164.67 543.35 167.13L530.89 180.62C528.65 183.06 524.96 183.06 522.69 180.62L510.27 167.13C510.27 167.13 507.63 166.25 505.9 166.21Z" fill="#006937" fill-opacity="0.2"/>
<path fill-rule="evenodd" clip-rule="evenodd" d="M488.34 195.27L500.79 181.8C503.05 179.34 506.71 179.34 508.97 181.8L521.41 195.28C523.67 197.73 523.67 201.7 521.41 204.13L508.99 217.62C506.71 220.06 503.05 220.06 500.81 217.62L488.34 204.12C486.1 201.68 486.1 197.72 488.34 195.27Z" fill="#006937" fill-opacity="0.2"/>
<path fill-rule="evenodd" clip-rule="evenodd" d="M378.95 28.7401C378.52 27.1701 376.97 26.5401 375.38 26.5401C368.24 26.5401 364.43 25.2501 357.53 25.9901C349.32 26.8401 346.3 26.5401 337.13 31.5001C334.08 33.1501 330.68 35.2101 328.46 32.6201C326.52 30.2901 326.99 26.5901 329.47 24.8901L343.77 11.6201C353.76 4.95008 352.94 0.590083 372.3 0.0400826C385.83 -0.359917 394.25 2.24008 406.98 1.70008C410.2 1.56008 413.32 2.01008 414.64 4.99008C416.04 8.24008 414.35 12.1101 411.07 13.2901L389.17 33.7001C386.6 36.4701 383.01 38.6701 383.01 38.6701C382.25 41.3501 381.02 42.5701 380.46 45.3001C379.82 48.4501 379.82 50.4201 380.46 53.5801V104.91C379.51 111.4 379.22 115.82 375.4 120.92C367.3 131.6 363.51 135.74 355.65 142.21C352.63 144.56 349.42 146.52 346.81 144.12C344.28 141.75 347.16 138.69 347.85 135.28C348.56 131.77 349.87 130.01 350.4 126.44C351 122.4 351 120.01 350.4 115.96V71.2401C350 67.3601 350.23 65.0101 351.42 61.3001C352.8 56.9501 354.28 54.5401 357.54 51.3601L376.41 32.6001C376.41 32.6001 379.44 30.4701 378.96 28.7201L378.95 28.7401Z" fill="#006937" fill-opacity="0.2"/>
<path fill-rule="evenodd" clip-rule="evenodd" d="M247.89 76.78C248.82 73.59 253.63 72.3 256.03 74.57C258.4 76.81 255.9 79.92 254.52 82.86C252.48 87.13 251.12 89.79 251.95 97.75V149.1C251.95 153.05 253.31 155.64 251.45 159.03C250.49 160.76 249.22 161.98 246.86 165.11L226.45 186.09C225.28 189.2 220.86 190.37 218.29 188.29C215.63 186.14 218.63 182.85 219.31 179.46C220.02 175.95 221.34 174.18 221.88 170.64C222.48 166.58 222.48 164.19 221.88 160.15V115.4C221.46 111.53 221.7 109.17 222.88 105.49C224.27 101.13 225.78 98.71 228.98 95.54L247.89 76.77V76.78Z" fill="#006937" fill-opacity="0.2"/>
</g>
</g>
<defs>
<clipPath id="clip0_527_6705">
<rect width="545.03" height="403.73" fill="white"/>
</clipPath>
</defs>
</svg>
